{"title":"Lady Gaga - Spanking New Sessions VH1HD AVC 1080i AC3 DD2.0-CELO","uid":7878873,"size":2576640000,"categoryP":"video","categoryS":"hd___tv_shows","magnet":"?xt=urn:btih:33d2d51d0426cfed550bfc7e1fe7497d92dc0318&amp;dn=Lady+Gaga+-+Spanking+New+Sessions+VH1HD+AVC+1080i+AC3+DD2.0-CELO&amp;tr=udp%3A%2F%2Ftracker.openbittorrent.com%3A80&amp;tr=udp%3A%2F%2Fopen.demonii.com%3A1337&amp;tr=udp%3A%2F%2Ftracker.coppersurfer.tk%3A6969&amp;tr=udp%3A%2F%2Fexodus.desync.com%3A6969","seeders":0,"leechers":1,"uploader":"blood013","files":1,"time":1354432064,"description":"General\nID                             : 0 (0x0)\nFormat                         : BDAV\nFormat/Info                    : Blu-ray Video\nFile size                      : 2.40 GiB\nDuration                       : 21mn 40s\nOverall bit rate mode          : Variable\nOverall bit rate               : 15.9 Mbps\nMaximum Overall bit rate       : 40.0 Mbps\n\nVideo\nID                             : 4113 (0x1011)\nMenu ID                        : 1 (0x1)\nFormat                         : AVC\nFormat/Info                    : Advanced Video Codec\nFormat profile                 : &lt;a class=&quot;__cf_email__&quot; href=&quot;/cdn-cgi/l/email-protection&quot; data-cfemail=&quot;a5e8c4cccbe5e9918b95&quot;&gt;[email&amp;#160;protected]&lt;/a&gt;&lt;script cf-hash='f9e31' type=&quot;text/javascript&quot;&gt;\n/* &lt;![CDATA[ */!function(){try{var t=&quot;currentScript&quot;in document?document.currentScript:function(){for(var t=document.getElementsByTagName(&quot;script&quot;),e=t.length;e--;)if(t[e].getAttribute(&quot;cf-hash&quot;))return t[e]}();if(t&amp;&amp;t.previousSibling){var e,r,n,i,c=t.previousSibling,a=c.getAttribute(&quot;data-cfemail&quot;);if(a){for(e=&quot;&quot;,r=parseInt(a.substr(0,2),16),n=2;a.length-n;n+=2)i=parseInt(a.substr(n,2),16)^r,e+=String.fromCharCode(i);e=document.createTextNode(e),c.parentNode.replaceChild(e,c)}}}catch(u){}}();/* ]]&gt; */&lt;/script&gt;\nFormat settings, CABAC         : Yes\nFormat settings, ReFrames      : 2 frames\nFormat settings, GOP           : M=3, N=16\nCodec ID                       : 27\nDuration                       : 21mn 40s\nBit rate mode                  : Variable\nBit rate                       : 15.0 Mbps\nMaximum bit rate               : 16.0 Mbps\nWidth                          : 1 920 pixels\nHeight                         : 1 080 pixels\nDisplay aspect ratio           : 16:9\nFrame rate                     : 29.970 fps\nColor space                    : YUV\nChroma subsampling             : 4:2:0\nBit depth                      : 8 bits\nScan type                      : Interlaced\nScan order                     : Top Field First\nBits/(Pixel*Frame)             : 0.241\nStream size                    : 2.26 GiB (94%)\n\nAudio\nID                             : 4352 (0x1100)\nMenu ID                        : 1 (0x1)\nFormat                         : AC-3\nFormat/Info                    : Audio Coding 3\nMode extension                 : CM (complete main)\nFormat settings, Endianness    : Big\nCodec ID                       : 129\nDuration                       : 21mn 40s\nBit rate mode                  : Constant\nBit rate                       : 256 Kbps\nChannel(s)                     : 2 channels\nChannel positions              : Front: L R\nSampling rate                  : 48.0 KHz\nBit depth                      : 16 bits\nCompression mode               : Lossy\nDelay relative to video        : 15ms\nStream size                    : 39.7 MiB (2%)\n","torrent":{"xt":"urn:btih:33d2d51d0426cfed550bfc7e1fe7497d92dc0318","amp;dn":"Lady+Gaga+-+Spanking+New+Sessions+VH1HD+AVC+1080i+AC3+DD2.0-CELO","amp;tr":["udp%3A%2F%2Ftracker.openbittorrent.com%3A80","udp%3A%2F%2Fopen.demonii.com%3A1337","udp%3A%2F%2Ftracker.coppersurfer.tk%3A6969","udp%3A%2F%2Fexodus.desync.com%3A6969"],"infoHash":"33d2d51d0426cfed550bfc7e1fe7497d92dc0318","infoHashBuffer":{"type":"Buffer","data":[51,210,213,29,4,38,207,237,85,11,252,126,31,231,73,125,146,220,3,24]},"announce":[],"urlList":[]}}